{
	"asset":{
		"version":"2.0",
		"generator":"Houdini GLTF 2.0 Exporter"
	},
	"accessors":[
		{
			"bufferView":0,
			"componentType":5125,
			"count":127338,
			"type":"SCALAR",
			"min":[0
			],
			"max":[51974
			]
		},
		{
			"bufferView":1,
			"componentType":5126,
			"count":51975,
			"type":"VEC3",
			"min":[-1.82886982,-5.57483959,-1.22404659
			],
			"max":[2.71919274,0.960487485,2.08815098
			]
		},
		{
			"bufferView":2,
			"componentType":5126,
			"count":51975,
			"type":"VEC3",
			"min":[-0.218100384,-0.218100384,-0.218100384
			],
			"max":[1.15513837,1.15513837,1.15513837
			]
		},
		{
			"bufferView":3,
			"componentType":5126,
			"count":51975,
			"type":"SCALAR",
			"min":[0.0308728404
			],
			"max":[1
			]
		},
		{
			"bufferView":4,
			"componentType":5126,
			"count":51975,
			"type":"VEC4",
			"min":[-0.996947885,-0.997843027,-0.944846332,1
			],
			"max":[0.999435961,0.999941468,3.09925181e-41,1
			]
		},
		{
			"bufferView":5,
			"componentType":5126,
			"count":51975,
			"type":"VEC3",
			"min":[-0.999601305,-0.999991298,-0.999883175
			],
			"max":[0.999415159,0.999902904,0.999970019
			]
		},
		{
			"bufferView":6,
			"componentType":5126,
			"count":51975,
			"type":"VEC2",
			"min":[0.001953125,0.395835757
			],
			"max":[0.998045087,0.998046875
			]
		}
	],
	"buffers":[
		{
			"uri":"cat_data.bin",
			"byteLength":3835752,
			"name":"main_buffer"
		}
	],
	"bufferViews":[
		{
			"buffer":0,
			"byteLength":509352,
			"target":34963
		},
		{
			"buffer":0,
			"byteOffset":509352,
			"byteLength":623700,
			"target":34962
		},
		{
			"buffer":0,
			"byteOffset":1133052,
			"byteLength":623700,
			"target":34962
		},
		{
			"buffer":0,
			"byteOffset":1756752,
			"byteLength":207900,
			"target":34962
		},
		{
			"buffer":0,
			"byteOffset":1964652,
			"byteLength":831600,
			"target":34962
		},
		{
			"buffer":0,
			"byteOffset":2796252,
			"byteLength":623700,
			"target":34962
		},
		{
			"buffer":0,
			"byteOffset":3419952,
			"byteLength":415800,
			"target":34962
		}
	],
	"nodes":[
		{
			"name":"Cat_Sim",
			"mesh":0
		}
	],
	"meshes":[
		{
			"primitives":[
				{
					"attributes":{
						"TEXCOORD_0":6,
						"TANGENT":4,
						"COLOR_0":2,
						"POSITION":1,
						"NORMAL":5,
						"_ao_mask":3
					},
					"indices":0
				}
			],
			"name":"attribblur1"
		}
	],
	"scenes":[
		{
			"nodes":[0
			]
		}
	],
	"scene":0
}
