{
	"asset":{
		"version":"2.0",
		"generator":"Houdini GLTF 2.0 Exporter"
	},
	"accessors":[
		{
			"bufferView":0,
			"componentType":5125,
			"count":509580,
			"type":"SCALAR",
			"min":[0
			],
			"max":[314832
			]
		},
		{
			"bufferView":1,
			"componentType":5126,
			"count":314833,
			"type":"SCALAR",
			"min":[0
			],
			"max":[1
			]
		},
		{
			"bufferView":2,
			"componentType":5126,
			"count":314833,
			"type":"VEC3",
			"min":[-18.4527321,-80.876297,-34.0193672
			],
			"max":[10.4007654,1.81611729,32.0118332
			]
		},
		{
			"bufferView":3,
			"componentType":5126,
			"count":314833,
			"type":"VEC3",
			"min":[-120.407745,-39.9179001,-46.8972816
			],
			"max":[75.8390427,104.691475,71.8535233
			]
		},
		{
			"bufferView":4,
			"componentType":5126,
			"count":314833,
			"type":"VEC3",
			"min":[-5.35929775,-40.4966393,-8.89412594
			],
			"max":[5.64840841,1.52717507,9.98261929
			]
		},
		{
			"bufferView":5,
			"componentType":5126,
			"count":314833,
			"type":"VEC4",
			"min":[-0.999997497,-0.999928772,-0.343750685,1
			],
			"max":[1,0.99979955,0.97673583,1
			]
		},
		{
			"bufferView":6,
			"componentType":5126,
			"count":314833,
			"type":"VEC2",
			"min":[0.001953125,0.00290280581
			],
			"max":[0.998043954,0.998046875
			]
		},
		{
			"bufferView":7,
			"componentType":5126,
			"count":314833,
			"type":"VEC3",
			"min":[0,0,0
			],
			"max":[1,1,1
			]
		},
		{
			"bufferView":8,
			"componentType":5126,
			"count":314833,
			"type":"VEC3",
			"min":[-0.99996376,-0.99999392,-0.999972761
			],
			"max":[0.99999243,0.999998927,0.999967098
			]
		}
	],
	"buffers":[
		{
			"uri":"cat_data.bin",
			"byteLength":29743624,
			"name":"main_buffer"
		}
	],
	"bufferViews":[
		{
			"buffer":0,
			"byteLength":2038320,
			"target":34963
		},
		{
			"buffer":0,
			"byteOffset":2038320,
			"byteLength":1259332,
			"target":34962
		},
		{
			"buffer":0,
			"byteOffset":3297652,
			"byteLength":3777996,
			"target":34962
		},
		{
			"buffer":0,
			"byteOffset":7075648,
			"byteLength":3777996,
			"target":34962
		},
		{
			"buffer":0,
			"byteOffset":10853644,
			"byteLength":3777996,
			"target":34962
		},
		{
			"buffer":0,
			"byteOffset":14631640,
			"byteLength":5037328,
			"target":34962
		},
		{
			"buffer":0,
			"byteOffset":19668968,
			"byteLength":2518664,
			"target":34962
		},
		{
			"buffer":0,
			"byteOffset":22187632,
			"byteLength":3777996,
			"target":34962
		},
		{
			"buffer":0,
			"byteOffset":25965628,
			"byteLength":3777996,
			"target":34962
		}
	],
	"nodes":[
		{
			"name":"Cat_Sim",
			"mesh":0
		}
	],
	"meshes":[
		{
			"primitives":[
				{
					"attributes":{
						"COLOR_0":7,
						"TEXCOORD_0":6,
						"TANGENT":5,
						"POSITION":2,
						"_v":4,
						"NORMAL":8,
						"_w":3,
						"_ao_mask":1
					},
					"indices":0
				}
			],
			"name":"TO_COPS"
		}
	],
	"scenes":[
		{
			"nodes":[0
			]
		}
	],
	"scene":0
}
