{
	"asset":{
		"version":"2.0",
		"generator":"Houdini GLTF 2.0 Exporter"
	},
	"accessors":[
		{
			"bufferView":0,
			"componentType":5125,
			"count":136725,
			"type":"SCALAR",
			"min":[0
			],
			"max":[43839
			]
		},
		{
			"bufferView":1,
			"componentType":5126,
			"count":43840,
			"type":"VEC3",
			"min":[-1.51777709,-1.03632092,-0.729970872
			],
			"max":[2.87191176,0.792335093,1.97480619
			]
		},
		{
			"bufferView":2,
			"componentType":5126,
			"count":43840,
			"type":"VEC3",
			"min":[-0.216652036,-0.216652036,-0.216652036
			],
			"max":[1.17300236,1.17300236,1.17300236
			]
		},
		{
			"bufferView":3,
			"componentType":5126,
			"count":43840,
			"type":"VEC3",
			"min":[-0.999990761,-0.999999285,-0.999970555
			],
			"max":[0.999618471,0.999940932,0.999982476
			]
		},
		{
			"bufferView":4,
			"componentType":5123,
			"count":27102,
			"type":"SCALAR",
			"min":[0
			],
			"max":[4518
			]
		},
		{
			"bufferView":5,
			"componentType":5126,
			"count":4519,
			"type":"VEC3",
			"min":[-7.52698565,-5.66476059,-7.52106905
			],
			"max":[7.51808214,0.106573209,7.52188921
			]
		},
		{
			"bufferView":6,
			"componentType":5126,
			"count":4519,
			"type":"VEC3",
			"min":[0.379999995,0.239780009,0.287541091
			],
			"max":[0.673506081,0.720380843,0.493965179
			]
		},
		{
			"bufferView":7,
			"componentType":5126,
			"count":4519,
			"type":"VEC3",
			"min":[-0.99963665,-0.999839842,-0.999039829
			],
			"max":[0.995644927,0.999988139,0.996439219
			]
		},
		{
			"bufferView":8,
			"componentType":5123,
			"count":624,
			"type":"SCALAR",
			"min":[0
			],
			"max":[149
			]
		},
		{
			"bufferView":9,
			"componentType":5126,
			"count":150,
			"type":"VEC3",
			"min":[-7.47716331,-0.920539379,-7.01801586
			],
			"max":[7.47205353,-0.920539379,2.98198414
			]
		},
		{
			"bufferView":10,
			"componentType":5126,
			"count":150,
			"type":"VEC3",
			"min":[0,1,0
			],
			"max":[0,1,0
			]
		}
	],
	"buffers":[
		{
			"uri":"CatDiorama_data.bin",
			"byteLength":2346876,
			"name":"main_buffer"
		}
	],
	"bufferViews":[
		{
			"buffer":0,
			"byteLength":546900,
			"target":34963
		},
		{
			"buffer":0,
			"byteOffset":546900,
			"byteLength":526080,
			"target":34962
		},
		{
			"buffer":0,
			"byteOffset":1072980,
			"byteLength":526080,
			"target":34962
		},
		{
			"buffer":0,
			"byteOffset":1599060,
			"byteLength":526080,
			"target":34962
		},
		{
			"buffer":0,
			"byteOffset":2125140,
			"byteLength":54204,
			"target":34963
		},
		{
			"buffer":0,
			"byteOffset":2179344,
			"byteLength":54228,
			"target":34962
		},
		{
			"buffer":0,
			"byteOffset":2233572,
			"byteLength":54228,
			"target":34962
		},
		{
			"buffer":0,
			"byteOffset":2287800,
			"byteLength":54228,
			"target":34962
		},
		{
			"buffer":0,
			"byteOffset":2342028,
			"byteLength":1248,
			"target":34963
		},
		{
			"buffer":0,
			"byteOffset":2343276,
			"byteLength":1800,
			"target":34962
		},
		{
			"buffer":0,
			"byteOffset":2345076,
			"byteLength":1800,
			"target":34962
		}
	],
	"nodes":[
		{
			"children":[1,2,3
			],
			"name":"Root"
		},
		{
			"name":"CAT",
			"mesh":0
		},
		{
			"name":"TERRAIN",
			"mesh":1
		},
		{
			"name":"WATER",
			"mesh":2
		}
	],
	"meshes":[
		{
			"primitives":[
				{
					"attributes":{
						"COLOR_0":2,
						"POSITION":1,
						"NORMAL":3
					},
					"indices":0
				}
			],
			"name":"CAT_MESH"
		},
		{
			"primitives":[
				{
					"attributes":{
						"COLOR_0":6,
						"POSITION":5,
						"NORMAL":7
					},
					"indices":4
				}
			],
			"name":"TERRAIN_MESH"
		},
		{
			"primitives":[
				{
					"attributes":{
						"POSITION":9,
						"NORMAL":10
					},
					"indices":8
				}
			],
			"name":"WATER_MESH"
		}
	],
	"scenes":[
		{
			"nodes":[0
			]
		}
	],
	"scene":0
}
