{
	"asset":{
		"version":"2.0",
		"generator":"Houdini GLTF 2.0 Exporter"
	},
	"accessors":[
		{
			"bufferView":0,
			"componentType":5125,
			"count":154440,
			"type":"SCALAR",
			"min":[0
			],
			"max":[50172
			]
		},
		{
			"bufferView":1,
			"componentType":5126,
			"count":50173,
			"type":"VEC3",
			"min":[0,0,0
			],
			"max":[1,1,1
			]
		},
		{
			"bufferView":2,
			"componentType":5126,
			"count":50173,
			"type":"VEC3",
			"min":[-0.218100384,-0.218100384,-0.218100384
			],
			"max":[1.15513837,1.15513837,1.15513837
			]
		},
		{
			"bufferView":3,
			"componentType":5126,
			"count":50173,
			"type":"VEC3",
			"min":[-7.52698565,-5.66476059,-7.52106905
			],
			"max":[7.51808214,0.960487485,7.52188921
			]
		},
		{
			"bufferView":4,
			"componentType":5126,
			"count":50173,
			"type":"VEC3",
			"min":[0,0,0
			],
			"max":[0,0,0
			]
		},
		{
			"bufferView":5,
			"componentType":5126,
			"count":50173,
			"type":"SCALAR",
			"min":[-0.183818758
			],
			"max":[0.827648163
			]
		},
		{
			"bufferView":6,
			"componentType":5126,
			"count":50173,
			"type":"VEC3",
			"min":[0,0,0
			],
			"max":[0,0,0
			]
		},
		{
			"bufferView":7,
			"componentType":5126,
			"count":50173,
			"type":"SCALAR",
			"min":[0
			],
			"max":[1
			]
		},
		{
			"bufferView":8,
			"componentType":5126,
			"count":50173,
			"type":"VEC4",
			"min":[-4.6500425e+28,-0.999130368,-0.99785012,1
			],
			"max":[0.999997437,0.999340534,0.99670738,1
			]
		},
		{
			"bufferView":9,
			"componentType":5126,
			"count":50173,
			"type":"VEC3",
			"min":[-0.99963665,-0.999991298,-0.999883175
			],
			"max":[0.999415159,0.999988139,0.999970019
			]
		},
		{
			"bufferView":10,
			"componentType":5126,
			"count":50173,
			"type":"VEC2",
			"min":[0,0.00327515602
			],
			"max":[0.99804008,1
			]
		}
	],
	"buffers":[
		{
			"uri":"CatDiorama_data.bin",
			"byteLength":5835752,
			"name":"main_buffer"
		}
	],
	"bufferViews":[
		{
			"buffer":0,
			"byteLength":617760,
			"target":34963
		},
		{
			"buffer":0,
			"byteOffset":617760,
			"byteLength":602076,
			"target":34962
		},
		{
			"buffer":0,
			"byteOffset":1219836,
			"byteLength":602076,
			"target":34962
		},
		{
			"buffer":0,
			"byteOffset":1821912,
			"byteLength":602076,
			"target":34962
		},
		{
			"buffer":0,
			"byteOffset":2423988,
			"byteLength":602076,
			"target":34962
		},
		{
			"buffer":0,
			"byteOffset":3026064,
			"byteLength":200692,
			"target":34962
		},
		{
			"buffer":0,
			"byteOffset":3226756,
			"byteLength":602076,
			"target":34962
		},
		{
			"buffer":0,
			"byteOffset":3828832,
			"byteLength":200692,
			"target":34962
		},
		{
			"buffer":0,
			"byteOffset":4029524,
			"byteLength":802768,
			"target":34962
		},
		{
			"buffer":0,
			"byteOffset":4832292,
			"byteLength":602076,
			"target":34962
		},
		{
			"buffer":0,
			"byteOffset":5434368,
			"byteLength":401384,
			"target":34962
		}
	],
	"nodes":[
		{
			"name":"Export",
			"mesh":0
		}
	],
	"meshes":[
		{
			"primitives":[
				{
					"attributes":{
						"_fbx_scale":1,
						"TEXCOORD_0":10,
						"TANGENT":8,
						"POSITION":3,
						"COLOR_0":2,
						"NORMAL":9,
						"_mask":5,
						"_fbx_translation":4,
						"_ao_mask":7,
						"_fbx_rotation":6
					},
					"indices":0
				}
			],
			"name":"merge1"
		}
	],
	"scenes":[
		{
			"nodes":[0
			]
		}
	],
	"scene":0
}
