{
	"asset":{
		"version":"2.0",
		"generator":"Houdini GLTF 2.0 Exporter"
	},
	"accessors":[
		{
			"bufferView":0,
			"componentType":5123,
			"count":2700,
			"type":"SCALAR",
			"min":[0
			],
			"max":[502
			]
		},
		{
			"bufferView":1,
			"componentType":5126,
			"count":503,
			"type":"VEC3",
			"min":[-0.200000003,-0.198932484,-0.200000003
			],
			"max":[1,1,1
			]
		},
		{
			"bufferView":2,
			"componentType":5126,
			"count":503,
			"type":"VEC3",
			"min":[0,0,0
			],
			"max":[1,1,1
			]
		}
	],
	"buffers":[
		{
			"uri":"axis_data.bin",
			"byteLength":17472,
			"name":"main_buffer"
		}
	],
	"bufferViews":[
		{
			"buffer":0,
			"byteLength":5400,
			"target":34963
		},
		{
			"buffer":0,
			"byteOffset":5400,
			"byteLength":6036,
			"target":34962
		},
		{
			"buffer":0,
			"byteOffset":11436,
			"byteLength":6036,
			"target":34962
		}
	],
	"nodes":[
		{
			"name":"geo1",
			"mesh":0
		}
	],
	"meshes":[
		{
			"primitives":[
				{
					"attributes":{
						"COLOR_0":2,
						"POSITION":1
					},
					"indices":0
				}
			],
			"name":"OUT_AXIS"
		}
	],
	"scenes":[
		{
			"nodes":[0
			]
		}
	],
	"scene":0
}
