{
	"asset":{
		"generator":"Khronos glTF Blender I/O v4.0.44",
		"version":"2.0"
	},
	"scene":0,
	"scenes":[
		{
			"name":"Scene",
			"nodes":[
				10
			]
		}
	],
	"nodes":[
		{
			"mesh":0,
			"name":"Object_8"
		},
		{
			"children":[
				0
			],
			"name":"cartridge.001_2",
			"rotation":[
				0,
				-0.3228400647640228,
				0,
				0.9464536309242249
			],
			"scale":[
				1.2875401973724365,
				1.287540078163147,
				1.2875401973724365
			],
			"translation":[
				6.226440906524658,
				0.7985235452651978,
				2.8181681632995605
			]
		},
		{
			"mesh":1,
			"name":"Object_6"
		},
		{
			"children":[
				2
			],
			"name":"cartridge.002_1",
			"rotation":[
				0,
				0.008973931893706322,
				0,
				0.9999598264694214
			],
			"scale":[
				1.2875401973724365,
				1.287540078163147,
				1.2875401973724365
			],
			"translation":[
				6.593111515045166,
				1.2709723711013794,
				2.9653279781341553
			]
		},
		{
			"mesh":2,
			"name":"Object_10"
		},
		{
			"children":[
				4
			],
			"name":"cartridge_3",
			"scale":[
				1.287540078163147,
				1.287540078163147,
				1.287540078163147
			],
			"translation":[
				6.672271728515625,
				0.3140880763530731,
				2.587553024291992
			]
		},
		{
			"mesh":3,
			"name":"Object_4"
		},
		{
			"children":[
				6
			],
			"name":"Gameboy_0",
			"rotation":[
				0,
				-0.16013039648532867,
				0,
				0.9870958924293518
			],
			"scale":[
				0.7169936895370483,
				0.7169936895370483,
				0.7169936895370483
			],
			"translation":[
				-0.3387352228164673,
				0.49954313039779663,
				-0.13872124254703522
			]
		},
		{
			"children":[
				1,
				3,
				5,
				7
			],
			"name":"GLTF_SceneRootNode",
			"rotation":[
				0.70710688829422,
				0,
				0,
				0.7071066498756409
			]
		},
		{
			"children":[
				8
			],
			"name":"root"
		},
		{
			"children":[
				9
			],
			"name":"Sketchfab_model",
			"rotation":[
				-0.70710688829422,
				0,
				0,
				0.7071066498756409
			]
		}
	],
	"materials":[
		{
			"doubleSided":true,
			"name":"cart",
			"pbrMetallicRoughness":{
				"baseColorTexture":{
					"index":0
				},
				"metallicFactor":0,
				"roughnessFactor":0.5
			}
		},
		{
			"doubleSided":true,
			"name":"gameboy_tex",
			"pbrMetallicRoughness":{
				"baseColorTexture":{
					"index":1
				},
				"metallicFactor":0,
				"roughnessFactor":0.5
			}
		}
	],
	"meshes":[
		{
			"name":"Object_2",
			"primitives":[
				{
					"attributes":{
						"POSITION":0,
						"TEXCOORD_0":1
					},
					"indices":2,
					"material":0
				}
			]
		},
		{
			"name":"Object_1",
			"primitives":[
				{
					"attributes":{
						"POSITION":3,
						"TEXCOORD_0":4
					},
					"indices":2,
					"material":0
				}
			]
		},
		{
			"name":"Object_3",
			"primitives":[
				{
					"attributes":{
						"POSITION":5,
						"TEXCOORD_0":6
					},
					"indices":2,
					"material":0
				}
			]
		},
		{
			"name":"Object_0",
			"primitives":[
				{
					"attributes":{
						"POSITION":7,
						"TEXCOORD_0":8
					},
					"indices":9,
					"material":1
				}
			]
		}
	],
	"textures":[
		{
			"sampler":0,
			"source":0
		},
		{
			"sampler":0,
			"source":1
		}
	],
	"images":[
		{
			"mimeType":"image/png",
			"name":"cart_diffuse",
			"uri":"textures/cart_diffuse.png"
		},
		{
			"mimeType":"image/png",
			"name":"gameboy_tex_diffuse",
			"uri":"textures/gameboy_tex_diffuse.png"
		}
	],
	"accessors":[
		{
			"bufferView":0,
			"componentType":5126,
			"count":88,
			"max":[
				1.1173467636108398,
				0.1843562126159668,
				0.5434131622314453
			],
			"min":[
				-1.1173467636108398,
				-0.1843562126159668,
				-2.007129192352295
			],
			"type":"VEC3"
		},
		{
			"bufferView":1,
			"componentType":5126,
			"count":88,
			"type":"VEC2"
		},
		{
			"bufferView":2,
			"componentType":5123,
			"count":132,
			"type":"SCALAR"
		},
		{
			"bufferView":3,
			"componentType":5126,
			"count":88,
			"max":[
				1.1173467636108398,
				0.1843562126159668,
				0.5434131622314453
			],
			"min":[
				-1.1173467636108398,
				-0.1843562126159668,
				-2.007129192352295
			],
			"type":"VEC3"
		},
		{
			"bufferView":4,
			"componentType":5126,
			"count":88,
			"type":"VEC2"
		},
		{
			"bufferView":5,
			"componentType":5126,
			"count":88,
			"max":[
				1.1173467636108398,
				0.1843562126159668,
				0.5434131622314453
			],
			"min":[
				-1.1173467636108398,
				-0.1843562126159668,
				-2.007129192352295
			],
			"type":"VEC3"
		},
		{
			"bufferView":6,
			"componentType":5126,
			"count":88,
			"type":"VEC2"
		},
		{
			"bufferView":7,
			"componentType":5126,
			"count":242,
			"max":[
				4.8259196281433105,
				1.5490823984146118,
				8.058162689208984
			],
			"min":[
				-4.8589019775390625,
				-0.57520991563797,
				-8.058162689208984
			],
			"type":"VEC3"
		},
		{
			"bufferView":8,
			"componentType":5126,
			"count":242,
			"type":"VEC2"
		},
		{
			"bufferView":9,
			"componentType":5123,
			"count":396,
			"type":"SCALAR"
		}
	],
	"bufferViews":[
		{
			"buffer":0,
			"byteLength":1056,
			"byteOffset":0,
			"target":34962
		},
		{
			"buffer":0,
			"byteLength":704,
			"byteOffset":1056,
			"target":34962
		},
		{
			"buffer":0,
			"byteLength":264,
			"byteOffset":1760,
			"target":34963
		},
		{
			"buffer":0,
			"byteLength":1056,
			"byteOffset":2024,
			"target":34962
		},
		{
			"buffer":0,
			"byteLength":704,
			"byteOffset":3080,
			"target":34962
		},
		{
			"buffer":0,
			"byteLength":1056,
			"byteOffset":3784,
			"target":34962
		},
		{
			"buffer":0,
			"byteLength":704,
			"byteOffset":4840,
			"target":34962
		},
		{
			"buffer":0,
			"byteLength":2904,
			"byteOffset":5544,
			"target":34962
		},
		{
			"buffer":0,
			"byteLength":1936,
			"byteOffset":8448,
			"target":34962
		},
		{
			"buffer":0,
			"byteLength":792,
			"byteOffset":10384,
			"target":34963
		}
	],
	"samplers":[
		{
			"magFilter":9728,
			"minFilter":9984
		}
	],
	"buffers":[
		{
			"byteLength":11176,
			"uri":"gameboy.bin"
		}
	]
}
