{
	"asset":{
		"generator":"Khronos glTF Blender I/O v4.1.63",
		"version":"2.0"
	},
	"scene":0,
	"scenes":[
		{
			"name":"Scene",
			"nodes":[
				11
			]
		}
	],
	"nodes":[
		{
			"mesh":0,
			"name":"CartridgeMesh.001"
		},
		{
			"children":[
				0
			],
			"name":"Cartridge_Root",
			"rotation":[
				0,
				-0.3228400647640228,
				0,
				0.9464536309242249
			],
			"scale":[
				1.2875401973724365,
				1.287540078163147,
				1.2875401973724365
			],
			"translation":[
				6.226440906524658,
				0.7985235452651978,
				2.8181681632995605
			]
		},
		{
			"mesh":1,
			"name":"CartridgeMesh.002"
		},
		{
			"children":[
				2
			],
			"name":"Cartridge_Root.001",
			"rotation":[
				0,
				0.008973931893706322,
				0,
				0.9999598264694214
			],
			"scale":[
				1.2875401973724365,
				1.287540078163147,
				1.2875401973724365
			],
			"translation":[
				6.593111515045166,
				1.2709723711013794,
				2.9653279781341553
			]
		},
		{
			"mesh":2,
			"name":"CartridgeMesh"
		},
		{
			"children":[
				4
			],
			"name":"Cartridge_Root.002",
			"scale":[
				1.287540078163147,
				1.287540078163147,
				1.287540078163147
			],
			"translation":[
				6.672271728515625,
				0.3140880763530731,
				2.587553024291992
			]
		},
		{
			"mesh":3,
			"name":"GameboyMesh"
		},
		{
			"children":[
				6
			],
			"name":"Gameboy_Root",
			"rotation":[
				0,
				-0.16013039648532867,
				0,
				0.9870958924293518
			],
			"scale":[
				0.7169936895370483,
				0.7169936895370483,
				0.7169936895370483
			],
			"translation":[
				-0.3387352228164673,
				0.49954313039779663,
				-0.13872124254703522
			]
		},
		{
			"mesh":4,
			"name":"Plane",
			"scale":[
				4.322370529174805,
				4.322370529174805,
				4.322370529174805
			]
		},
		{
			"children":[
				8
			],
			"name":"Plane_Root"
		},
		{
			"children":[
				1,
				3,
				5,
				7,
				9
			],
			"name":"GLTF_SceneRootNode",
			"rotation":[
				0.70710688829422,
				0,
				0,
				0.7071066498756409
			]
		},
		{
			"children":[
				10
			],
			"name":"root",
			"rotation":[
				-0.7071066498756409,
				0,
				0,
				0.70710688829422
			]
		}
	],
	"materials":[
		{
			"doubleSided":true,
			"name":"cart",
			"pbrMetallicRoughness":{
				"baseColorTexture":{
					"index":0
				},
				"metallicFactor":0,
				"roughnessFactor":0.5
			}
		},
		{
			"doubleSided":true,
			"name":"gameboy_tex",
			"pbrMetallicRoughness":{
				"baseColorTexture":{
					"index":1
				},
				"metallicFactor":0,
				"roughnessFactor":0.5
			}
		},
		{
			"doubleSided":true,
			"name":"plane",
			"pbrMetallicRoughness":{
				"baseColorTexture":{
					"index":2
				},
				"metallicFactor":0,
				"roughnessFactor":0.5
			}
		}
	],
	"meshes":[
		{
			"name":"cartridgeMeshData.001",
			"primitives":[
				{
					"attributes":{
						"POSITION":0,
						"NORMAL":1,
						"TEXCOORD_0":2
					},
					"indices":3,
					"material":0
				}
			]
		},
		{
			"name":"cartridgeMeshData",
			"primitives":[
				{
					"attributes":{
						"POSITION":4,
						"NORMAL":5,
						"TEXCOORD_0":6
					},
					"indices":3,
					"material":0
				}
			]
		},
		{
			"name":"cartridgeMesh.001",
			"primitives":[
				{
					"attributes":{
						"POSITION":7,
						"NORMAL":8,
						"TEXCOORD_0":9
					},
					"indices":3,
					"material":0
				}
			]
		},
		{
			"name":"GameboyMeshData",
			"primitives":[
				{
					"attributes":{
						"POSITION":10,
						"NORMAL":11,
						"TEXCOORD_0":12
					},
					"indices":13,
					"material":1
				}
			]
		},
		{
			"name":"Plane",
			"primitives":[
				{
					"attributes":{
						"POSITION":14,
						"NORMAL":15,
						"TEXCOORD_0":16
					},
					"indices":17,
					"material":2
				}
			]
		}
	],
	"textures":[
		{
			"sampler":0,
			"source":0
		},
		{
			"sampler":0,
			"source":1
		},
		{
			"sampler":1,
			"source":2
		}
	],
	"images":[
		{
			"mimeType":"image/png",
			"name":"cart_diffuse",
			"uri":"textures/cart_diffuse.png"
		},
		{
			"mimeType":"image/png",
			"name":"gameboy_tex_diffuse",
			"uri":"textures/gameboy_tex_diffuse.png"
		},
		{
			"mimeType":"image/png",
			"name":"Grass",
			"uri":"textures/Grass.png"
		}
	],
	"accessors":[
		{
			"bufferView":0,
			"componentType":5126,
			"count":88,
			"max":[
				1.197871446609497,
				0.1843562126159668,
				0.48124492168426514
			],
			"min":[
				-1.0368220806121826,
				-0.1843562126159668,
				-2.0692975521087646
			],
			"type":"VEC3"
		},
		{
			"bufferView":1,
			"componentType":5126,
			"count":88,
			"type":"VEC3"
		},
		{
			"bufferView":2,
			"componentType":5126,
			"count":88,
			"type":"VEC2"
		},
		{
			"bufferView":3,
			"componentType":5123,
			"count":132,
			"type":"SCALAR"
		},
		{
			"bufferView":4,
			"componentType":5126,
			"count":88,
			"max":[
				1.2558460235595703,
				0.1843562126159668,
				0.5458992719650269
			],
			"min":[
				-0.9788475036621094,
				-0.1843562126159668,
				-2.004643201828003
			],
			"type":"VEC3"
		},
		{
			"bufferView":5,
			"componentType":5126,
			"count":88,
			"type":"VEC3"
		},
		{
			"bufferView":6,
			"componentType":5126,
			"count":88,
			"type":"VEC2"
		},
		{
			"bufferView":7,
			"componentType":5126,
			"count":88,
			"max":[
				1.1173467636108398,
				0.1843562126159668,
				0.5434131622314453
			],
			"min":[
				-1.1173467636108398,
				-0.1843562126159668,
				-2.007129192352295
			],
			"type":"VEC3"
		},
		{
			"bufferView":8,
			"componentType":5126,
			"count":88,
			"type":"VEC3"
		},
		{
			"bufferView":9,
			"componentType":5126,
			"count":88,
			"type":"VEC2"
		},
		{
			"bufferView":10,
			"componentType":5126,
			"count":242,
			"max":[
				4.8259196281433105,
				1.5490823984146118,
				8.058162689208984
			],
			"min":[
				-4.8589019775390625,
				-0.57520991563797,
				-8.058162689208984
			],
			"type":"VEC3"
		},
		{
			"bufferView":11,
			"componentType":5126,
			"count":242,
			"type":"VEC3"
		},
		{
			"bufferView":12,
			"componentType":5126,
			"count":242,
			"type":"VEC2"
		},
		{
			"bufferView":13,
			"componentType":5123,
			"count":396,
			"type":"SCALAR"
		},
		{
			"bufferView":14,
			"componentType":5126,
			"count":4,
			"max":[
				100,
				0,
				100
			],
			"min":[
				-100,
				0,
				-100
			],
			"type":"VEC3"
		},
		{
			"bufferView":15,
			"componentType":5126,
			"count":4,
			"type":"VEC3"
		},
		{
			"bufferView":16,
			"componentType":5126,
			"count":4,
			"type":"VEC2"
		},
		{
			"bufferView":17,
			"componentType":5123,
			"count":6,
			"type":"SCALAR"
		}
	],
	"bufferViews":[
		{
			"buffer":0,
			"byteLength":1056,
			"byteOffset":0,
			"target":34962
		},
		{
			"buffer":0,
			"byteLength":1056,
			"byteOffset":1056,
			"target":34962
		},
		{
			"buffer":0,
			"byteLength":704,
			"byteOffset":2112,
			"target":34962
		},
		{
			"buffer":0,
			"byteLength":264,
			"byteOffset":2816,
			"target":34963
		},
		{
			"buffer":0,
			"byteLength":1056,
			"byteOffset":3080,
			"target":34962
		},
		{
			"buffer":0,
			"byteLength":1056,
			"byteOffset":4136,
			"target":34962
		},
		{
			"buffer":0,
			"byteLength":704,
			"byteOffset":5192,
			"target":34962
		},
		{
			"buffer":0,
			"byteLength":1056,
			"byteOffset":5896,
			"target":34962
		},
		{
			"buffer":0,
			"byteLength":1056,
			"byteOffset":6952,
			"target":34962
		},
		{
			"buffer":0,
			"byteLength":704,
			"byteOffset":8008,
			"target":34962
		},
		{
			"buffer":0,
			"byteLength":2904,
			"byteOffset":8712,
			"target":34962
		},
		{
			"buffer":0,
			"byteLength":2904,
			"byteOffset":11616,
			"target":34962
		},
		{
			"buffer":0,
			"byteLength":1936,
			"byteOffset":14520,
			"target":34962
		},
		{
			"buffer":0,
			"byteLength":792,
			"byteOffset":16456,
			"target":34963
		},
		{
			"buffer":0,
			"byteLength":48,
			"byteOffset":17248,
			"target":34962
		},
		{
			"buffer":0,
			"byteLength":48,
			"byteOffset":17296,
			"target":34962
		},
		{
			"buffer":0,
			"byteLength":32,
			"byteOffset":17344,
			"target":34962
		},
		{
			"buffer":0,
			"byteLength":12,
			"byteOffset":17376,
			"target":34963
		}
	],
	"samplers":[
		{
			"magFilter":9728,
			"minFilter":9984
		},
		{
			"magFilter":9729,
			"minFilter":9987
		}
	],
	"buffers":[
		{
			"byteLength":17388,
			"uri":"gameboy.bin"
		}
	]
}
